<svg width="100" height="100" viewBox="0 0 100 100" fill="none" xmlns="http://www.w3.org/2000/svg">
<g id="express-delivery" clip-path="url(#clip0_437_3395)">
<g id="Clip path group">
<mask id="mask0_437_3395" style="mask-type:luminance" maskUnits="userSpaceOnUse" x="0" y="0" width="100" height="100">
<g id="__lottie_element_3058">
<path id="Vector" d="M100 0H0V100H100V0Z" fill="white"/>
</g>
</mask>
<g mask="url(#mask0_437_3395)">
<g id="Group">
<g id="Group_2">
<g id="Group_3">
<g id="Vector_2">
<path d="M17.9801 42.0506V30.3848H61.7611V39.2612V55.0326V55.1184V69.7112H61.7485H36.6187M25.1351 69.7112H17.9801V55.9508M77.6481 69.7104H82.0245V55.0316H61.7731H61.7605V69.7104H61.7731H66.1341M82.0245 55.0316H61.7605V39.2618H69.7579C72.7619 39.2618 75.4927 40.9998 76.7575 43.7168L82.0245 55.0316ZM36.6181 69.7104C36.6181 72.8814 34.0475 75.452 30.8765 75.452C27.7055 75.452 25.1349 72.8814 25.1349 69.7104C25.1349 66.5394 27.7055 63.9688 30.8765 63.9688C34.0475 63.9688 36.6181 66.5394 36.6181 69.7104ZM77.6707 69.7104C77.6707 72.8814 75.1001 75.452 71.9291 75.452C68.7581 75.452 66.1875 72.8814 66.1875 69.7104C66.1875 66.5394 68.7581 63.9688 71.9291 63.9688C75.1001 63.9688 77.6707 66.5394 77.6707 69.7104Z" fill="white"/>
<path d="M17.9801 42.0506V30.3848H61.7611V39.2612V55.0326V55.1184V69.7112H61.7485H36.6187M25.1351 69.7112H17.9801V55.9508M77.6481 69.7104H82.0245V55.0316M82.0245 55.0316H61.7731H61.7605M82.0245 55.0316H61.7605M82.0245 55.0316L76.7575 43.7168C75.4927 40.9998 72.7619 39.2618 69.7579 39.2618H61.7605V55.0316M61.7605 55.0316V69.7104H61.7731H66.1341M36.6181 69.7104C36.6181 72.8814 34.0475 75.452 30.8765 75.452C27.7055 75.452 25.1349 72.8814 25.1349 69.7104C25.1349 66.5394 27.7055 63.9688 30.8765 63.9688C34.0475 63.9688 36.6181 66.5394 36.6181 69.7104ZM77.6707 69.7104C77.6707 72.8814 75.1001 75.452 71.9291 75.452C68.7581 75.452 66.1875 72.8814 66.1875 69.7104C66.1875 66.5394 68.7581 63.9688 71.9291 63.9688C75.1001 63.9688 77.6707 66.5394 77.6707 69.7104Z" stroke="#1D1E1C" stroke-width="2.40804" stroke-linecap="round" stroke-linejoin="round"/>
</g>
</g>
</g>
<g id="Group_4">
<g id="Group_5">
<g id="Group_6">
<g id="Vector_3">
<path d="M12.6006 48.9994H51.1064H12.6006ZM51.1054 48.9994L43.6426 55.1294L51.1054 48.9994ZM51.1054 48.9994L43.6426 42.8694L51.1054 48.9994Z" fill="white"/>
<path d="M12.6006 48.9994H51.1064M43.6426 55.1294L51.1054 48.9994L43.6426 42.8694" stroke="#FF5100" stroke-width="2.40804" stroke-linecap="round" stroke-linejoin="round"/>
</g>
</g>
</g>
</g>
</g>
</g>
</g>
</g>
<defs>
<clipPath id="clip0_437_3395">
<rect width="100" height="100" fill="white"/>
</clipPath>
</defs>
</svg>
