<svg width="100" height="100" viewBox="0 0 100 100" fill="none" xmlns="http://www.w3.org/2000/svg">
<g id="cash-collection" clip-path="url(#clip0_437_3893)">
<g id="Clip path group">
<mask id="mask0_437_3893" style="mask-type:luminance" maskUnits="userSpaceOnUse" x="0" y="0" width="100" height="100">
<g id="__lottie_element_3673">
<path id="Vector" d="M100 0H0V100H100V0Z" fill="white"/>
</g>
</mask>
<g mask="url(#mask0_437_3893)">
<g id="Group">
<g id="Mask group">
<g id="Group_2">
<g id="Group_3">
<g id="Group_4">
<path id="Vector_2" d="M42.0749 28.0943L35.3883 43.855C30.9477 52.7436 36.8487 66.0146 50.0656 66.0146C63.2825 66.0146 68.9621 52.7436 64.5565 43.855L57.9162 28.2201L62.5385 12.7243C62.5385 12.7243 58.7964 15.3115 56.1092 15.3115C53.3894 15.3115 52.342 12.6919 49.8304 12.6919C47.3188 12.6919 45.9126 15.3115 43.602 15.3115C41.2915 15.3115 37.3233 12.6597 37.3233 12.6597L42.0749 28.0943Z" fill="white" stroke="#FF5100" stroke-width="2.40004" stroke-linecap="round" stroke-linejoin="round"/>
</g>
<g id="Group_5">
<g id="Group_6">
<path id="Vector_3" d="M53.5904 48.1784C52.6564 46.5806 50.6088 45.6048 48.7902 46.1946C47.7932 46.5178 46.9554 47.4004 46.8446 48.4428C46.4244 52.401 53.7736 50.3606 53.675 54.4038C53.658 55.098 53.2832 55.7564 52.748 56.1988C52.2128 56.6412 51.5312 56.8819 50.8422 56.9693C49.1148 57.1887 47.3548 56.436 46.2788 55.0788" stroke="#FF5100" stroke-width="2.40004" stroke-linecap="round" stroke-linejoin="round"/>
</g>
<g id="Group_7">
<path id="Vector_4" d="M49.9774 59.6843V57.0014" stroke="#FF5100" stroke-width="2.40004" stroke-linecap="round" stroke-linejoin="round"/>
</g>
<g id="Group_8">
<path id="Vector_5" d="M49.9774 46.0259V43.3486" stroke="#FF5100" stroke-width="2.40004" stroke-linecap="round" stroke-linejoin="round"/>
</g>
</g>
</g>
</g>
</g>
<g id="Group_9">
<g id="Group_10">
<g id="Vector_6">
<path d="M52.4422 78.0835H40.325C39.588 78.0835 38.9916 77.4801 38.993 76.7431C38.9952 75.5689 39.4726 74.5055 40.2424 73.7357C41.014 72.9641 42.0808 72.4863 43.2582 72.4863H53.6858C55.1834 72.4863 56.6694 72.2717 58.1224 71.9087C63.1804 70.6447 69.097 71.5677 76.7038 74.1457V83.8807H75.1686C70.21 83.8807 65.2638 84.3805 60.4054 85.3723L52.1252 87.0627C48.6594 87.7703 45.0544 87.2061 41.9704 85.4735L24.0586 73.8673C23.6992 73.6755 23.457 73.3503 23.3602 72.9841C23.2726 72.6521 23.3052 72.2859 23.4812 71.9587C24.5734 69.9215 27.1102 69.1539 29.1486 70.2459L39.0108 76.3581" fill="white"/>
<path d="M52.4422 78.0835H40.325C39.588 78.0835 38.9916 77.4801 38.993 76.7431C38.9952 75.5689 39.4726 74.5055 40.2424 73.7357C41.014 72.9641 42.0808 72.4863 43.2582 72.4863H53.6858C55.1834 72.4863 56.6694 72.2717 58.1224 71.9087C63.1804 70.6447 69.097 71.5677 76.7038 74.1457V83.8807H75.1686C70.21 83.8807 65.2638 84.3805 60.4054 85.3723L52.1252 87.0627C48.6594 87.7703 45.0544 87.2061 41.9704 85.4735L24.0586 73.8673C23.6992 73.6755 23.457 73.3503 23.3602 72.9841C23.2726 72.6521 23.3052 72.2859 23.4812 71.9587C24.5734 69.9215 27.1102 69.1539 29.1486 70.2459L39.0108 76.3581" stroke="#1D1E1C" stroke-width="2.40004" stroke-linecap="round" stroke-linejoin="round"/>
</g>
</g>
</g>
<g id="Group_11">
<g id="Group_12">
<g id="Vector_7">
<path d="M60.371 20.6022L40.2973 21.4732L23.2004 21.4728L23.2001 42.7659L40.2982 42.7661C40.2982 42.7661 44.6777 44.6024 51.2528 44.6022C57.828 44.602 65.0001 44.6018 65.0001 44.6018" fill="white"/>
<path d="M60.371 20.6022L40.2973 21.4732L23.2004 21.4728L23.2001 42.7659L40.2982 42.7661C40.2982 42.7661 44.6777 44.6024 51.2528 44.6022C57.828 44.602 65.0001 44.6018 65.0001 44.6018" stroke="#1D1E1C" stroke-width="2.40004" stroke-linecap="round" stroke-linejoin="round"/>
</g>
</g>
<g id="Group_13">
<g id="Vector_8">
<path d="M57.7775 20.626L66.6245 20.6298C68.4749 20.6298 69.7983 21.8969 69.7983 23.4599C69.7983 25.2128 68.3773 26.6338 66.6245 26.6338L61.7683 26.63" fill="white"/>
<path d="M57.7775 20.626L66.6245 20.6298C68.4749 20.6298 69.7983 21.8969 69.7983 23.4599C69.7983 25.2128 68.3773 26.6338 66.6245 26.6338L61.7683 26.63" stroke="#1D1E1C" stroke-width="2.40004" stroke-linecap="round" stroke-linejoin="round"/>
</g>
</g>
<g id="Group_14">
<g id="Vector_9">
<path d="M62.5637 32.6334H67.1977C68.7607 32.6334 70.0275 33.9005 70.0275 35.4635C70.0275 37.2164 68.6065 38.6372 66.8537 38.6372H60.3575" fill="white"/>
<path d="M62.5637 32.6334H67.1977C68.7607 32.6334 70.0275 33.9005 70.0275 35.4635C70.0275 37.2164 68.6065 38.6372 66.8537 38.6372H60.3575" stroke="#1D1E1C" stroke-width="2.40004" stroke-linecap="round" stroke-linejoin="round"/>
</g>
</g>
<g id="Group_15">
<g id="Vector_10">
<path d="M60.3574 38.6368H63.12C64.7778 38.6368 66.0582 39.9808 66.0582 41.6387C66.0582 43.2965 64.4914 44.6406 62.8336 44.6406H57.7774" fill="white"/>
<path d="M60.3574 38.6368H63.12C64.7778 38.6368 66.0582 39.9808 66.0582 41.6387C66.0582 43.2965 64.4914 44.6406 62.8336 44.6406H57.7774" stroke="#1D1E1C" stroke-width="2.40004" stroke-linecap="round" stroke-linejoin="round"/>
</g>
</g>
<g id="Group_16">
<g id="Vector_11">
<path d="M61.7681 26.6298L67.3761 26.63C69.0339 26.63 70.3779 27.9743 70.3779 29.6321C70.3779 31.29 69.0339 32.634 67.3761 32.634L62.5637 32.6336" fill="white"/>
<path d="M61.7681 26.6298L67.3761 26.63C69.0339 26.63 70.3779 27.9743 70.3779 29.6321C70.3779 31.29 69.0339 32.634 67.3761 32.634L62.5637 32.6336" stroke="#1D1E1C" stroke-width="2.40004" stroke-linecap="round" stroke-linejoin="round"/>
</g>
</g>
</g>
</g>
</g>
</g>
</g>
<defs>
<clipPath id="clip0_437_3893">
<rect width="100" height="100" fill="white"/>
</clipPath>
</defs>
</svg>
