<svg width="319" height="314" viewBox="0 0 319 314" fill="none" xmlns="http://www.w3.org/2000/svg">
<path d="M161.566 153.019L161.539 153.098L161.234 154.097L159.176 157.403L158.649 164.029L157.441 166.119L157.474 170.201L158.675 172.028L157.013 176.261L156.707 182.097L155.182 183.202L155.09 182.663L153.96 182.794L153.383 182.262L151.675 182.794L150.902 184.404L146.044 189.452L147.805 193.423L153.37 201.395L153.467 215.816L153.538 226.628V226.852L70.8764 203.472L66.5001 203.742L57.9476 206.85L46.9595 198.194L55.3756 195.414L60.0516 190.846L69.2601 190.997L71.2336 186.58L75.8966 180.191L77.4028 178.89L79.9037 177.851L84.8975 178.219L86.0528 177.523L88.2091 170.319L87.4561 169.498L89.6381 162.51L93.6313 157.561L94.7554 155.09L99.0021 151.849L103.438 145.737L112.035 143.357L119.303 143.055L120.179 142.299L127.907 149.654L130.505 150.423L132.667 151.277H134.835L136.459 152.178L138.602 152.835H140.895L142.733 152.395L143.818 151.954L145.55 151.277L148.363 150.094L152.909 149.983L154.533 150.64L158.87 150.206L160.811 151.277L161.566 153.019Z" fill="#FF915E" stroke="white" stroke-width="0.75" stroke-linecap="round"/>
<path d="M157.55 26.6294L157.715 25.4732L156.891 24.8758L156.448 23.8195L156.615 23.0972L156.096 23.2148L155.654 22.7528L155.652 22.083L156.515 21.5013L155.327 21.149L156.104 20.3806L155.133 19.3145L155.217 18.5442L156.665 17.4662L157.378 15.8447L154.564 16.2739L152.831 15.8224L151.799 16.6118L149.066 16.8182L147.082 17.5951L146.439 18.7039L144.416 19.5242L143.767 21.682L145.101 21.893L146.513 21.3665L146.816 22.6114L147.165 22.6252L146.628 23.7341L146.958 23.6309L147.295 24.9435L148.448 24.5077L148.222 24.6681L148.608 24.695L148.959 25.47L149.974 26.1174L151.817 25.583L153.227 27.7435L153.266 26.8141L153.603 26.5952L153.353 26.3665L154.822 25.959L154.846 25.3904L155.637 24.6253L156.31 25.8584L157.55 26.6294Z" fill="#FF915E" stroke="white" stroke-width="0.75" stroke-linecap="round"/>
<path d="M196.444 75.6178L187.95 75.0263L187.451 75.3023L185.71 74.5727L185.118 74.8294L184.924 74.4939L184.652 74.9868L184.366 74.7765L183.755 75.2629L178.657 75.4995L181.034 76.9656L181.248 78.8714L175.696 77.5305L172.208 78.5887L165.176 79.2131L163.156 74.8951L163.253 73.8895L162.838 73.3108L165.429 73.2187L165.565 70.6554L164.214 70.9515L161.929 70.2084L162.065 69.1042L160.039 68.9201L160.221 67.0403L160.754 66.1004L160.014 65.4365L159.935 64.7858L158.987 64.5164L159.149 62.768L158.779 61.7492L157.591 60.7041L155.324 61.2431L154.279 60.0666L152.844 59.4293L152.947 58.7783L152.39 57.8187L153.818 56.859L153.291 55.9717L155.74 54.5125L155.922 55.2553L156.987 54.618L157.221 53.0139L158.415 51.6402L161.584 50.49L163.111 48.8008L164.397 48.2224L164.676 47.5322L166.637 47.289L167.001 51.4496L167.812 53.8093L168.098 53.7567L170.293 56.8853L171.072 57.1022L172.54 56.3989L172.994 56.5698L172.975 55.6168L174.449 54.1116L175.39 54.6111L175.313 54.8938L176.125 54.6111L177.671 59.0215L177.573 59.8168L178.618 61.9201L182.021 62.9126L184.605 65.2722L185.521 66.8037L190.8 68.815L191.769 69.5117L194.372 72.0882L196.444 75.6178Z" fill="#FF915E" stroke="white" stroke-width="0.75" stroke-linecap="round"/>
<path d="M239.43 24.9172L239.885 25.1709L240.231 26.5624L241.28 27.0481L240.778 27.501L240.869 28.2194L241.721 29.9671L239.092 31.0325L237.872 32.8716L237.467 32.9459L237.038 32.2551L236.589 32.2156L236.373 31.4328L236.118 31.2264L235.728 31.6214L235.844 31.2409L234.992 30.6329L234.725 31.5531L234.045 31.7555L234.086 30.3332L232.937 29.7574L232.86 30.1176L231.68 29.9408L231.059 31.2613L229.988 30.9438L230.254 30.276L229.855 29.9276L227.236 30.3273L226.734 29.2789L225.365 27.6929L224.346 27.2223L222.611 28.0209L222.383 27.681L222.684 27.428L222.337 27.1881L222.571 26.5847L220.878 26.4099L220.807 26.024L219.801 26.8884L218.221 26.0352L218.742 24.6464L219.814 24.4978L220.278 24.8331L220.14 24.3263L220.648 24.4025L221.439 23.3949L221.544 21.5605L223.081 20.9932L222.833 21.2804L223.219 22.0429L223.875 22.2854L223.574 21.757L224.302 22.1533L224.546 21.4507L226.003 21.3462L226.173 20.3971L227.112 21.1635L229.464 21.2068L229.333 22.0324L230.154 22.3945L230.027 23.0236L230.675 23.1327L232.484 22.2309L232.927 21.0642L233.743 21.0143L234.018 22.5017L234.496 22.5313L234.918 23.9247L235.584 24.7995L237.32 25.4174L237.3 26.3888L239.128 26.2482L238.898 25.2379L239.43 24.9172Z" fill="#FF915E" stroke="white" stroke-width="0.75" stroke-linecap="round"/>
<path d="M224.73 44.6435L224.318 43.2336L224.845 42.7111L224.448 42.3929L224.772 42.0117L223.898 40.5289L223.377 40.4329L223.638 39.8782L223.353 38.9902L224.201 38.0503L224.052 36.3184L225.119 35.4008L224.437 35.2569L224.551 34.3117L224.14 33.4355L225.109 32.5245L226.679 32.1315L227.077 31.1364L226.596 30.1564L226.735 29.2769L225.366 27.6909L224.347 27.2203L222.612 28.0189L222.384 27.6791L222.685 27.426L222.338 27.1861L222.572 26.5827L220.879 26.4079L220.808 26.0221L219.802 26.8864L218.222 26.0332L215.895 25.7585L215.577 26.0102L214.95 26.3849L215.239 27.1493L213.417 25.56L212.629 25.7684L211.704 26.7931L211.782 27.3018L212.569 27.5667L212.055 28.4225L211.613 28.2654L211.287 28.621L209.797 27.9979L209.64 28.4481L209.123 28.3968L208.226 29.1146L208.378 29.7725L207.871 30.9287L207.139 30.7098L205.411 32.6573L204.231 33.2528L203.763 32.5508L203.073 32.5429L202.536 33.1483L202.488 32.631L201.865 33.6209L200.602 32.5048L201.136 35.3975L200.889 37.071L200.295 38.0878L199.954 37.9655L199.183 38.7365L199.309 39.1348L201.212 39.1742L202.592 40.0925L202.971 39.8683L204.282 40.5039L204.756 41.2282L205.416 40.918L206.392 41.384L206.754 41.3314L206.976 40.6012L209.515 40.5348L210.676 39.9078L210.781 39.2945L210.355 38.6537L209.41 38.4696L209.202 37.8439L210.641 37.9438L212.953 36.3677L214.782 37.604L215.989 37.4601L214.529 38.8542L215.175 39.7566L214.638 40.6932L215.134 40.5545L215.767 41.716L217.237 39.8526L217.902 40.1076L217.847 40.8865L219.23 41.3459L219.675 40.3942L221.012 40.2226L222.084 39.4917L222.923 40.5605L222.416 41.3005L222.744 41.921L222.46 43.5905L224.055 44.886L224.73 44.6435Z" fill="#FF915E" stroke="white" stroke-width="0.75" stroke-linecap="round"/>
<path d="M198.499 17.4038L198.28 18.1426L196.971 18.7466L196.949 20.3832L194.235 21.1049L193.73 19.9869L193.874 19.5919L193.387 18.9412L193.869 18.6204L193.967 17.7627L193.526 16.8918L194.692 16.3456L196.107 14.7398L195.843 14.3054L196.66 13.2662L195.506 12.6457L195.602 12.2211L196.4 11.9845L196.858 12.3388L197.293 11.9089L197.249 11.0295L196.34 9.74647L198.686 9.47961L200.894 10.177L202.217 11.1228L203.432 11.3621L203.144 12.4893L205.019 13.516L207.828 13.3122L207.847 14.1772L208.442 14.3054L208.323 15.2762L206.773 15.9814L206.936 16.4304L206.082 17.3985L206.387 18.0032L205.901 18.2497L204.826 18.4081L204.843 17.7936L204.472 17.9237L204.488 16.155L204.835 15.6988L203.433 14.7359L203.409 15.0303L202.805 14.9725L202.516 15.8782L200.164 15.5627L200.133 16.4494L198.499 17.4038Z" fill="#FF915E" stroke="white" stroke-width="0.75" stroke-linecap="round"/>
<path d="M226.972 48.4721L226.29 49.813L226.628 51.0815L225.504 52.521V52.5275L224.433 52.9088L223.491 51.9886L219.77 50.6477L216.322 51.5022L216.277 51.4956L208.575 50.6674L207.146 49.7078L206.769 48.7285V47.7425L206.198 47.105L205.386 46.4937L205.289 45.8101L204.678 45.2777L204.191 43.9829C204.191 43.9829 202.931 43.9369 201.769 43.8777L202.444 43.674L202.886 42.6289L203.237 42.5829L202.88 42.3857L202.594 40.0918L202.97 39.8683L204.282 40.4993L204.756 41.2289L205.419 40.9134L206.393 41.3801L206.756 41.3275L206.977 40.5979L209.516 40.5322L210.679 39.9078L210.783 39.2899L210.354 38.6524L209.412 38.4683L209.205 37.8439L210.64 37.9425L212.952 36.365L214.783 37.6007L215.991 37.4561L214.53 38.8495L215.173 39.7566L214.64 40.6899L215.134 40.5519L215.77 41.7153L217.238 39.8486L217.9 40.1049L217.848 40.8871L219.231 41.3472L219.673 40.3942L221.011 40.2233L222.082 39.4871L222.926 40.5585L222.413 41.3012L222.745 41.919L222.459 43.5885L224.056 44.8834L224.732 44.6402V44.6468L225.433 44.2458L225.914 43.1219L226.654 43.0759L226.394 43.3914L227.076 44.0815L226.803 44.7388L227.336 44.6073L226.868 46.1782L226.972 48.4721Z" fill="#FF915E" stroke="white" stroke-width="0.75" stroke-linecap="round"/>
<path d="M138.602 114.483L138.48 114.628L135.538 114.148L134.439 113.537H128.919L127.945 112.136H126.609L124.698 110.329H123.037L122.425 110.861L118.854 110.986L117.88 111.683L115.692 111.768L115.244 112.261L112.445 112.551L111.548 111.479L109.646 111.722L108.75 112.34H101.73L101.081 113.083L94.7881 112.997L91.5412 116.08H89.554L88.5799 115.626L87.6828 116.323L87.1188 116.823H84.8849L84.1965 117.355H82.6503V118.052H80.9031L80.6638 117.48L80.2537 115.423L79.728 114.851L79.5468 113.418L80.9294 112.893L81.306 112.386L80.6498 111.262L81.1115 109.994L81.3976 110.171L82.5405 108.718L82.5795 107.318L82.4496 106.885L82.1249 107.226L81.8707 106.957L81.5788 105.912L81.2739 106.037L81.2667 106.234L80.8391 106.372L81.1508 106.53L80.6498 106.425L80.8057 105.347L80.3907 104.913L80.3131 105.564L79.9163 105.393L79.9429 105.879L79.5273 105.722L79.2936 106.123L79.579 104.808L79.1702 103.842L79.6433 103.408L79.2871 102.895L79.852 101.778L80.2222 102.107L81.3327 101.285L81.2541 97.2492L93.1708 94.9616L91.7876 90.9982L92.1834 89.5262L96.6513 89.7954L98.6063 89.0723L101.236 89.0135L102.723 89.4996L104.957 88.9018L111.061 90.5907L115.841 90.9656L117.068 90.1306L116.276 89.3287L115.049 89.4799L115.867 88.8029L115.815 86.7525L116.562 85.4836L117.555 85.3065L117.659 86.8774L118.588 86.9559L118.237 88.8423L119.133 88.8689L119.328 89.8939L123.114 87.8564L127.524 89.1055L128.699 88.2314L130.264 88.5731L131.323 86.9953L130.705 89.8808L129.355 89.5653L128.641 90.1043L127.959 91.5634L127.868 94.3112L128.309 95.8095L127.861 95.8489V95.8555L127.978 96.4865L127.589 97.0455L128.206 97.8208L127.4 98.6164L128.212 99.9372L127.556 100.726L127.576 101.955L128.127 103.151L130.024 104.696L129.492 106.655L138.602 114.483Z" fill="#FF915E" stroke="white" stroke-width="0.75" stroke-linecap="round"/>
<path d="M179.054 16.5145L179.214 15.6745L178.834 15.497L179.084 15.2249L178.778 14.6616L179.127 14.3468L178.551 14.5762L178.06 13.7151L177.405 14.2219L177.009 14.0228L176.553 15.2105L175.827 15.2598L175.897 14.5486L174.929 15.2519L172.48 14.2114L172.7 14.8838L171.329 15.2775L170.37 16.36L169.682 16.4521L169.969 16.9792L169.678 17.3999L168.66 17.2014L167.987 18.1636L169.93 19.5479L170.91 18.8334L172.789 18.9675L173.807 18.1939L174.243 19.1844L175.204 19.1896L175.768 18.554L175.645 17.6615L175.952 18.2898L176.428 17.8981L176.878 18.3569L177.631 17.5984L177.685 16.6907L178.743 16.8675L179.054 16.5145Z" fill="#FF915E" stroke="white" stroke-width="0.75" stroke-linecap="round"/>
<path d="M189.639 24.2251L190.592 23.4804L190.712 21.9127L191.821 21.3468L192.338 20.5305L193.221 20.591L193.73 19.9876L193.874 19.5925L193.387 18.9418L193.869 18.6211L193.966 17.7633L193.526 16.8924L191.893 17.0673L191.715 16.7163L191.06 17.0725L187.388 17.1797L186.523 16.9634L185.915 15.8875L185.407 15.9137L184.829 15.1007L181.767 14.6347L181.455 15.2814L180.568 15.7507L179.212 15.6732L179.052 16.5132L180.819 18.2412L181.832 17.2684L182.714 17.7311L182.43 18.182L183.076 19.0963L182.382 19.4893L182.095 20.3215L182.789 20.9643L182.672 21.496L181.746 21.7681L181.598 22.3295L182.024 23.0143L181.759 23.3331L181.175 23.9477L180.517 23.9378L180.828 24.4512L182.638 24.7364L183.552 26.4776L183.897 25.9465L184.895 26.047L185.321 26.6544L186.017 26.8003L186.244 27.4608L186.765 27.4924L187.589 26.6945L189.24 27.2794L188.952 26.3691L189.639 24.2251Z" fill="#FF915E" stroke="white" stroke-width="0.75" stroke-linecap="round"/>
<path d="M289.366 247.201L251.987 274.748C251.097 274.104 250.253 273.473 250.071 273.256C249.668 272.756 246.259 269.969 246.259 269.969H244.551L243.824 270.627L242.363 270.377L236.434 266.026H232.46L231.648 267.669L230.914 270.127L229.94 272.513L228.966 274.485V277.357H220.848L219.147 275.471L212.9 275.556L209.484 273.335L206.808 273.17L205.432 272.677L204.048 273.499L203.483 275.885L203.964 277.357L203.483 278.672L202.75 281.715L199.912 282.287L196.58 285.659H193.743L192.846 284.673L193.249 281.472L193.658 280.486V278.672L192.846 277.686V276.214L191.548 274.57L189.112 273.828L187.976 272.756L184.891 272.599L183.183 270.213L181.235 270.048L180.345 267.091L179.209 264.869L178.235 262.49L176.936 262.082L176.04 263.554L165.818 263.476L165.266 264.113L158.779 264.212L158.701 263.844L155.831 263.535L153.129 263.975L153.538 226.852V226.628L153.467 215.816L159.688 210.768L160.338 208.468L161.429 203.131L161.714 201.731L162.201 199.351L163.26 198.24L164.52 199.266L166.708 198.858L168.091 200.048L170.728 200.455L172.553 202.388L179.209 202.145L181.281 199.68L182.982 199.64V202.513L183.391 203.374H185.417L186.106 202.881L187.203 203.374L190.937 199.68L188.95 196.269L189.073 194.79L190.086 193.929L189.599 191.175L188.95 190.517L187.852 188.749L188.586 188.177L190.372 189.9L192.035 189.656L197.23 183.984L201.451 183.741C201.451 183.741 202.224 184.398 202.464 184.523C202.711 184.641 203.315 184.523 203.315 184.523L204.087 183.084L205.432 182.755L208.633 179.468V177.865L209.653 177.043L211.679 174.164L210.952 172.317V170.924L212.328 169.32L213.14 168.005L217.647 168.13L217.764 168.689L217.79 174.414L226.024 181.782L226.297 183.044L224.465 184.589L223.777 186.6L224.543 187.619L226.005 188.013L226.095 188.677L227.089 189.42L230.94 200.028L234.226 204.064L235.284 206.805L237.681 210.906L239.518 212.339L242.428 212.431L246.058 217.709L245.902 220.194L246.577 227.384L250.201 235.508L248.922 236.981L252.974 239.866L264.131 237.132L272.501 230.809L281.528 230.27L282.606 230.94L284.041 230.907L288.899 233.688L289.366 247.201Z" fill="#FF915E" stroke="white" stroke-width="0.75" stroke-linecap="round"/>
<path d="M248.435 40.4928L247.526 41.0252L248.129 43.4702L248.701 44.1144L247.642 44.9754L248.227 45.4947L247.331 46.3951L247.48 46.8487L246.766 46.921L246.051 48.0186L242.577 49.9839L242.096 52.7708L236.733 52.5013L233.966 51.5219L234.466 48.1829L235.836 45.5933L235.856 44.4762L235.44 43.8515L235.927 42.5303L235.362 40.966L234.538 40.9003L234.109 41.5378L233.823 42.4252L234.148 42.3266L234.09 43.372L233.498 41.9848L234.401 39.612L235.245 39.0796L236.174 37.4758L235.492 36.4508L236.005 35.6752L235.512 35.2937L235.434 33.6899L237.466 32.9472L237.875 32.8683L239.09 31.0345L241.72 29.97V29.9631L240.869 28.2213L240.778 27.4983L241.278 27.0448L240.232 26.5653L239.882 25.1716L239.428 24.9152L239.687 24.0213L240.908 24.9415L241.96 24.9221L243.324 23.3775L244.142 23.4758L245.765 22.7462L247.175 23.456L246.746 24.3039L247.051 24.5738L247.032 27.3077L248.305 28.2213L248.513 30.7124L248.909 31.35L248.006 32.6054L248.052 34.3147L249.396 35.3791L250.389 35.4251L248.863 37.9096L248.435 40.4928Z" fill="#FF915E" stroke="white" stroke-width="0.75" stroke-linecap="round"/>
<path d="M120.285 40.1812L119.84 40.2272L119.67 39.6291L117.404 38.4801L117.189 38.697L116.947 38.1896L116.245 38.4887L114.727 37.9675L114.131 38.8456L113.428 39.0191L112.745 38.58L112.876 37.953L112.326 37.5435L109.73 39.4674L109.294 39.234L107.883 40.0017L105.644 40.1648L104.451 39.61L103.693 39.8821L103.626 40.5065L105.316 42.1162L106.001 42.6427L106.903 42.4994L106.92 43.4788L107.97 44.1097L108.028 44.6901L110.059 45.818L108.435 47.9272L108.935 48.1336L109.824 49.6986L110.659 50.0811L109.283 51.7677L110.31 53.1848L110.172 54.3725L110.95 56.8413L113.294 55.1192L116.536 55.1337L117.333 54.2082L118.326 53.8907L122.282 50.1883L122.047 49.6671L121.426 49.5369L122.471 48.9118L123.305 47.1023L123.156 46.6515L123.478 46.6751L123.301 46.0145L121.758 46.1927L122.039 44.0933L121.275 44.2517L121.797 43.5057L121.023 43.4755L120.695 42.2746L121.547 40.8766L120.285 40.1812Z" fill="#FF915E" stroke="white" stroke-width="0.75" stroke-linecap="round"/>
<path d="M162.62 32.9787L161.758 33.1509L161.902 34.0685L166.303 36.768L166.985 37.976L168.73 36.465L169.412 36.9881L169.625 37.7276L170.76 38.0023L170.755 39.0021L170.315 39.1723L169.587 40.6518L170.516 41.4912L168.419 42.3292L167.48 45.3928L166.525 45.6945L166.634 47.2897L164.677 47.5349L164.394 48.2211L163.11 48.8034L161.586 50.4893L158.419 51.6416L157.224 53.014L156.987 54.6164L155.92 55.2586L155.742 54.5099L153.291 55.9744L153.816 56.8584L152.39 57.818L151.664 56.7815L151.523 55.5701L147.925 55.764L148.361 52.5552L145.782 52.0116L146.857 50.1009L144.926 49.2964L144.721 48.9474L145.211 48.5984L144.919 47.8228L144.23 48.1238L143.106 46.1092L143.356 44.9866L142.995 44.3799L145.048 42.8491L144.012 41.25L143.101 40.8346L142.919 40.1832L140.778 40.4382L141.474 39.2748L142.482 38.5518L142.322 37.9281L143.085 37.0013L143.788 36.8955L144.776 37.4141L145.498 37.1827L146.065 35.7985L146.513 35.6138L145.544 34.5924L146.129 34.4741L147.251 32.5824L148.039 32.5186L148.112 31.9481L148.639 32.0204L148.745 31.4203L150.082 31.5564L150.451 30.9083L151.391 30.5323L152.265 31.63L152.647 30.1196L153.471 30.7308L153.821 30.5317L154.7 31.0338L154.739 31.9639L156.007 31.8495L156.686 32.9794L157.214 33.0813L157.326 32.3931L157.948 33.032L160.414 32.748L161.994 31.8692L161.631 32.3103L162.638 32.3543L162.62 32.9787Z" fill="#FF915E" stroke="white" stroke-width="0.75" stroke-linecap="round"/>
<path d="M196.341 9.74714L197.249 11.0302L197.294 11.9096L196.858 12.3395L196.4 11.9852L195.602 12.2218L195.506 12.6464L196.661 13.2669L195.843 14.306L196.108 14.7405L194.693 16.3462L193.527 16.8924L191.894 17.0673L191.716 16.7163L191.061 17.0725L187.389 17.1797L186.524 16.9634L185.916 15.8875L185.408 15.9138L184.83 15.1007L184.688 13.9873L185.608 13.7763L186.156 14.1654L186.049 13.3181L186.93 13.5239L186.428 12.9566L186.679 12.0095L187.356 12.1613L187.473 11.7637L188.086 11.7131L188.115 11.2004L188.994 10.436L188.906 9.6216L192.439 9.41062L193.641 9.69062L194.281 9.33109L196.341 9.74714Z" fill="#FF915E" stroke="white" stroke-width="0.75" stroke-linecap="round"/>
<path d="M179.891 11.7926L179.715 12.1929L180.142 12.0516L180.162 12.722L178.682 13.2117L178.254 12.8942L178.507 13.3556L178.06 13.7145L177.404 14.2213L177.008 14.0221L176.552 15.2098L175.826 15.2591L175.896 14.5479L174.928 15.2512L172.479 14.2107L172.392 13.2597L172.788 12.1982L173.372 12.0838L173.55 11.4633L174.332 11.3088L175.522 11.3667L175.842 12.1561L176.597 12.5012L177.973 12.0923L178.075 11.2411L179.891 11.7926Z" fill="#FF915E" stroke="white" stroke-width="0.75" stroke-linecap="round"/>
<path d="M204.288 66.8431L202.717 70.215L204.152 77.7343L196.444 75.6178L194.372 72.0882L191.769 69.5117L190.8 68.815L185.521 66.8037L184.613 65.2722H184.605L182.021 62.9126L178.618 61.9201L177.573 59.8168L177.671 59.0215L176.125 54.6111L175.313 54.8938L175.39 54.6111L174.449 54.1116L172.975 55.6168L172.994 56.5698L172.54 56.3989L171.072 57.1022L170.293 56.8853L168.098 53.7567L167.812 53.8093L167.001 51.4496L166.637 47.289L166.526 45.6918L167.482 45.3961L168.423 42.3331L170.514 41.4918L169.585 40.6505L170.312 39.1716L170.754 39.0007L170.76 38.0017L169.624 37.7256L169.409 36.9898L168.728 36.4636L166.987 37.9754L166.306 36.766L161.903 34.0711L161.76 33.1509L162.618 32.9804L165.02 32.7697L165.448 34.3275L166.838 34.2157L168.448 33.6837L168.598 33.3152L170.344 34.571L171.189 34.1306L172.228 32.4476L173.417 31.5537L173.793 31.7246L173.351 28.4317L175.034 27.9716L175.482 29.5034L175.936 29.4113L176.06 30.857L177.864 30.3973L178.359 29.4964L178.287 28.7015L178.956 28.0307L179.514 29.1612L180.222 29.1287L180.423 29.9565L181.664 31.2386L184.722 33.7425L184.677 34.9059L184.112 35.3203L184.391 36.5954L181.612 38.9679L182.346 41.0251L183.54 40.5388L183.216 41.551L182.858 41.597L183.314 42.2214L183.177 44.1735L184.087 44.3904L184.177 45.4749L185.092 45.1594L187.631 45.797L188.092 48.5904L187.905 49.9313L189.093 51.2393L188.891 52.6064L191.684 54.9595L191.399 55.413L192.002 56.1623L193.23 56.3398L193.483 57.3191L195.009 57.5758L195.379 58.0553H194.6L193.71 59.0215L192.84 59.1069L192.58 59.4487L192.872 59.9022L197.139 61.7623L197.841 62.7351L199.958 63.1426L200.211 63.7671L201.483 63.5567L201.958 64.3589L204.555 65.0162L204.218 65.5943L204.288 66.8431Z" fill="#FF915E" stroke="white" stroke-width="0.75" stroke-linecap="round"/>
<path d="M212.075 14.8292L212.798 14.6071L213.686 15.0816L214.662 14.7885L215.469 13.6902L218.622 14.2239L219.831 13.4141L220.112 13.8334L221.893 14.1496L221.728 13.238L222.266 13.1104L222.46 12.5951L220.534 11.6578L220.08 9.48291L219.019 9.25089L219.199 8.47333L218.902 8.03952L215.153 10.0074L212.891 10.5687L212.334 10.1961L211.246 10.4123L209.7 11.3608L209.029 12.7003L207.827 13.3149L207.846 14.1798L208.441 14.308L208.929 14.2922L209.191 15.5108L209.826 15.5614L210.471 14.9318L211.282 15.3761L212.075 14.8292Z" fill="#FF915E" stroke="white" stroke-width="0.75" stroke-linecap="round"/>
<path d="M212.075 14.8292L212.437 15.3005L212.356 16.6466L213.164 17.273L213.09 18.1583L213.995 18.4383L213.932 19.208L215.353 20.7638L214.718 21.1062L214.75 22.334L215.863 22.5963L216.048 23.9667L215.6 24.3631L216.355 25.1604L215.576 26.0102L214.949 26.3849L215.238 27.1493L213.416 25.56L212.627 25.7683L211.703 26.793L211.781 27.3018L212.568 27.5667L212.054 28.4224L211.612 28.2653L211.286 28.6209L209.795 27.9978L209.638 28.4481L209.121 28.3968L208.224 29.1146L208.376 29.7725L207.869 30.9286L207.137 30.7098L204.869 30.4022L204.513 29.8724L204.785 29.5201L204.468 29.1796L203.749 29.3374L202.792 28.6525L202.902 28.2404L202.89 27.1874L204.246 26.9981L203.932 25.0743L205.016 23.1957L204.386 22.5569L204.469 21.191L203.843 21.0109L202.882 19.3382L202.101 19.0996L201.476 19.5294L199.624 19.7246L199.119 19.0785L199.313 17.8461L198.496 17.4044L200.13 16.4514L200.161 15.5647L202.512 15.8802L202.802 14.9745L203.405 15.0323L203.43 14.7379L204.832 15.7008L204.484 16.1569L204.469 17.9257L204.839 17.7955L204.822 18.4101L205.898 18.2517L206.383 18.0052L206.078 17.4005L206.932 16.4323L206.769 15.9834L208.32 15.2781L208.439 14.3073L208.926 14.2916L209.188 15.5102L209.824 15.5608L210.468 14.9311L211.279 15.3754L212.075 14.8292Z" fill="#FF915E" stroke="white" stroke-width="0.75" stroke-linecap="round"/>
<path d="M145.782 52.0109L143.929 51.5285L140.953 53.5884L139.828 52.0793L137.946 53.3998L136.535 53.2335L135.174 51.8354L133.66 51.3339L132.686 50.3493L131.258 51.1696L131.169 49.7545L130.532 49.0341L130.698 48.0416L132.316 48.8626L132.737 50.1002L133.464 49.0052L132.569 47.1385L131.197 46.2354L131.006 45.5098L129.857 45.4026L130.119 44.6198L129.256 44.0276L130.012 43.5011L129.755 42.1294L130.932 41.9999L130.617 40.8411L130.845 40.2193L131.701 39.9544L132.339 39.959L132.771 39.144L132.995 40.4428L134.672 40.3186L135.517 40.8891L136.219 40.8253L136.352 41.4208L137.008 41.856L138.628 40.7721L139.13 41.3571L139.779 41.4359L140.78 40.4382L142.921 40.1832L143.103 40.8345L144.014 41.2499L145.05 42.8491L142.997 44.3799L143.358 44.9866L143.108 46.1092L144.232 48.1238L144.921 47.8227L145.213 48.5983L144.723 48.9473L144.928 49.2964L146.859 50.1009L145.782 52.0109Z" fill="#FF915E" stroke="white" stroke-width="0.75" stroke-linecap="round"/>
<path d="M233.763 12.2093L233.414 12.4393L233.142 12.1462L232.785 12.837L230.458 13.6678L230.034 14.241L230.306 15.0586L228.599 15.5174L228.56 16.5309L227.745 16.4455L227.486 15.9854L226.756 16.1221L226.891 14.799L227.521 14.1299L226.352 14.3672L224.875 14.0885L224.635 13.2182L223.942 14.1305L222.521 14.0339L221.893 14.1483L221.728 13.2366L222.266 13.1091L222.46 12.5938L220.534 11.6565L220.08 9.48159L219.019 9.24957L219.199 8.472L218.902 8.0382L218.585 7.35068L218.895 6.60598L219.843 5.84091L221.661 5.41893L222.712 5.96316L223.211 7.30467L225.084 7.74242L225.501 7.39866L225.754 7.71416L226.823 7.45585L227.329 8.50684L228.292 8.66327L230.005 7.94421L231.082 7.97115L232.409 6.70392L232.227 6.01706L231.035 5.16391L232.638 5.20335L233.199 5.66673L233.024 6.0933L233.631 7.11735L233.564 7.46439L233.162 7.39275L234.036 8.21632L234.456 10.4668L234.407 11.0558L233.63 11.3785L233.763 12.2093Z" fill="#FF915E" stroke="white" stroke-width="0.75" stroke-linecap="round"/>
<path d="M127.03 34.4537L126.613 35.1063L126.769 35.74L125.793 36.231L125.675 35.7893L123.832 36.1159L123.788 36.5944L123.159 36.8941L122.631 36.534L122.124 37.4509L121.687 37.3332L121.873 38.6123L120.976 38.9153L120.815 39.869L120.284 40.1812L121.545 40.8792L120.693 42.2773L121.021 43.4781L121.795 43.5084L121.273 44.2544L122.037 44.096L121.756 46.1953L123.299 46.0172L123.477 46.6778L123.154 46.6541L123.303 47.105L122.469 48.9145L121.424 49.5396L122.045 49.6697L122.28 50.1909L118.323 53.8934L119.025 54.9654L120.41 53.9355L120.792 54.6046L121.014 54.3305L122.94 54.9181L125.572 53.2683L126.769 53.9526L128.804 60.3735L129.008 59.6315L129.562 59.6584L130.92 57.7621L131.98 57.2948L132.872 57.4256L133.848 55.4097L134.459 54.9556L133.659 51.3346L132.685 50.35L131.257 51.1703L131.168 49.7552L130.531 49.0348L130.697 48.0423L132.315 48.8632L132.736 50.1009L133.463 49.0059L132.568 47.1392L131.196 46.2361L131.005 45.5104L129.856 45.4033L130.118 44.6205L129.255 44.0283L130.011 43.5018L129.754 42.13L130.931 42.0006L130.616 40.8418L130.844 40.22L131.7 39.9551L131.178 38.5071L131.422 37.8728L132.381 37.4055L131.761 37.1722L130.968 37.8419L130.827 37.4811L131.679 36.9178L131.925 36.2691L130.154 35.7071L129.925 35.2917L129.437 35.8714L128.422 35.7925L128.573 34.311L127.541 34.7067L127.03 34.4537Z" fill="#FF915E" stroke="white" stroke-width="0.75" stroke-linecap="round"/>
<path d="M238.082 12.1153L238.453 11.1642L238.176 10.6732L238.805 9.92395L239.415 10.0179L239.435 9.14507L240.175 9.13915L239.937 8.68892L239.163 8.1184L239.509 6.63492L238.359 7.03389L237.684 6.56656L237.22 6.89717L235.688 5.59181L234.296 5.71604L233.985 4.97397L232.638 5.20336L233.2 5.66674L233.025 6.09332L233.631 7.11736L233.565 7.4644L233.164 7.39276L234.037 8.21633L234.457 10.4669L234.408 11.0558L233.631 11.3785L233.762 12.2106L234.509 12.1304L234.794 12.7062L234.923 12.2185L235.64 11.8846L235.754 12.6648L237.515 12.9954L238.082 12.1153Z" fill="#FF915E" stroke="white" stroke-width="0.75" stroke-linecap="round"/>
<path d="M238.082 12.1153L238.689 11.9122L239.135 12.2415L239.907 13.957L240.666 13.7059L240.797 14.0628L240.766 13.5561L241.609 13.9399L242.207 15.1559L241.017 16.1707L240.353 15.8999L240.226 16.7656L240.927 17.6739L240.684 17.9612L239.243 18.0742L237.841 19.442L237.065 19.2632L235.429 19.8771L233.576 19.5229L233.255 20.4076L233.742 21.0116L232.925 21.0616L232.482 22.2282L230.673 23.13L230.025 23.0209L230.153 22.3919L229.331 22.0297L229.462 21.2042L229.412 20.8295L229.967 20.518L230.036 19.4098L229.672 18.4614L228.878 18.3168L229.267 17.8461L228.584 17.48L228.93 17.1179L228.558 16.5322L228.598 15.5187L230.305 15.0599L230.032 14.2423L230.456 13.6691L232.784 12.8383L233.141 12.1475L233.412 12.4407L233.762 12.2106L234.509 12.1304L234.794 12.7062L234.923 12.2185L235.64 11.8846L235.754 12.6648L237.515 12.9954L238.082 12.1153Z" fill="#FF915E" stroke="white" stroke-width="0.75" stroke-linecap="round"/>
<path d="M229.464 21.2042L229.414 20.8295L229.969 20.518L230.038 19.4098L229.674 18.4614L228.88 18.3168L229.269 17.8461L228.586 17.48L228.932 17.1179L228.56 16.5322L227.746 16.4468L227.487 15.9867L226.757 16.1234L226.891 14.8003L227.521 14.1312L226.352 14.3685L224.876 14.0898L224.636 13.2195L223.942 14.1318L222.521 14.0352L222.509 15.0862L220.367 15.589L220.552 16.9174L219.954 18.1518L220.81 17.8856L221.542 18.4633L221.37 19.4414L221.882 19.7674L222.543 19.5735L223.151 20.1013L223.081 20.9912L222.834 21.2785L223.22 22.0409L223.875 22.2834L223.574 21.755L224.303 22.1513L224.546 21.4487L226.003 21.3442L226.174 20.3951L227.113 21.1615L229.464 21.2042Z" fill="#FF915E" stroke="white" stroke-width="0.75" stroke-linecap="round"/>
<path d="M183.552 26.4789L183.73 27.0014L182.988 27.4523L183.345 27.6935L182.034 28.1438L182.592 28.9857L182.615 30.9352L180.856 28.2042L180.276 28.2962L180.539 28.803L180.221 29.1284L179.513 29.1606L178.959 28.0327L178.288 28.7031L178.356 29.4958L177.867 30.3963L176.057 30.857L175.937 29.411L175.483 29.5056L175.032 27.9696L173.354 28.4343L173.793 31.724L173.417 31.5537L172.228 32.4483L171.187 34.1336L170.347 34.5687L168.594 33.3139L168.446 33.682L166.839 34.2157L165.45 34.3255L165.022 32.7723L165.483 31.4788L163.658 30.9937L163.433 30.0998L163.76 29.6923L165.206 29.8428L165.792 27.2748L166.473 26.5492L166.255 25.9734L167.544 26.0221L167.749 24.1974L168.309 24.3513L169.505 23.621L169.546 22.4096L168.673 22.2092L168.618 21.3094L168.157 21.1786L168.563 19.9232L169.437 19.9514L169.929 19.5478L170.909 18.8334L172.787 18.9675L173.806 18.1938L174.241 19.1844L175.203 19.1896L175.766 18.554L175.643 17.6615L175.951 18.2898L176.427 17.8981L176.877 18.3569L177.629 17.5984L177.683 16.6906L178.742 16.8675L179.053 16.5145L180.821 18.2425L181.834 17.2697L182.716 17.7324L182.432 18.1833L183.078 19.0976L182.384 19.4907L182.097 20.3228L182.791 20.9656L182.674 21.4973L181.748 21.7695L181.6 22.3308L182.026 23.0157L181.761 23.3344L181.177 23.949L180.519 23.9391L180.83 24.4525L182.64 24.7377L183.552 26.4789Z" fill="#FF915E" stroke="white" stroke-width="0.75" stroke-linecap="round"/>
<path d="M132.68 28.6709L134.605 27.4556L136.123 24.3854L137.321 23.109L143.287 19.563L144.417 19.5248L143.768 21.6827L142.482 23.3068L143.319 24.1942L142.908 24.6536L143.141 25.2261L141.76 25.2872L141.401 25.6849L140.605 25.3089L140.056 25.978L140.259 26.4822L140.697 26.4585L140.313 27.1105L140.461 27.7086L139.596 28.6532L139.026 28.408L138.463 28.7623L137.331 30.1255L136.744 30.0361L136.351 30.669L136.331 30.1675L135.636 30.2858L134.968 29.3479L133.506 29.7416L132.68 28.6709Z" fill="#FF915E" stroke="white" stroke-width="0.75" stroke-linecap="round"/>
<path d="M207.14 30.7058L205.412 32.658L204.23 33.2495L203.763 32.5528L203.074 32.5396L202.535 33.1443L202.49 32.6317L201.866 33.6176L200.6 32.5068L201.133 35.3988L200.892 37.0683L200.295 38.0871L199.951 37.9622L199.184 38.7378L199.308 39.1322L201.211 39.1716L202.594 40.0918L202.88 42.3857L203.237 42.5829L202.886 42.6289L202.444 43.674L201.769 43.8777C201.763 43.8777 201.763 43.8777 201.763 43.8777L198.912 44.7453L198.301 45.7313L197.652 45.843L198.496 46.5594L197.834 46.9144L197.405 46.6252L196.217 47.3745L193.093 47.4008L192.522 48.6036L191.099 49.8064L191.444 50.0036L191.71 52.0346L192.502 52.8693L192.301 53.3426L193.483 53.9538L192.976 54.6177L191.684 54.9595L188.892 52.6064L189.093 51.2393L187.904 49.9313L188.093 48.5904L187.632 45.797L185.093 45.1594L184.177 45.4749L184.086 44.3904L183.177 44.1735L183.313 42.2214L182.859 41.597L183.216 41.551L183.541 40.5387L182.346 41.0251L181.612 38.9678L184.391 36.5951L184.112 35.3199L184.677 34.9059L184.722 33.7425L181.664 31.2382L180.423 29.9565L180.222 29.1284L180.54 28.7997L180.274 28.2936L180.858 28.2016L182.612 30.9359L182.592 28.9838L182.034 28.1424L183.346 27.6955L182.989 27.4523L183.729 26.9988L183.553 26.4795L183.898 25.9471L184.898 26.0457L185.32 26.657L186.015 26.8016L186.242 27.4589L186.768 27.4917L187.593 26.6964L189.242 27.2814L188.95 26.3678L189.638 24.225L190.008 24.9481L191.444 24.4485L193.236 25.0927L195.437 24.133L195.996 25.9603L194.95 26.3678L194.502 27.7481L196.334 27.9387L196.1 27.288L196.964 26.8673L196.71 27.5837L197.139 28.0899L198.49 27.0579L200.256 26.7096L201.113 27.8072L201.873 27.7744L201.99 28.5762L202.906 28.241L202.795 28.6485L203.75 29.3387L204.471 29.1809L204.789 29.5162L204.516 29.8711L204.873 30.4035L207.14 30.7058Z" fill="#FF915E" stroke="white" stroke-width="0.75" stroke-linecap="round"/>
<path d="M137.331 30.1238L137.706 30.2513L138.496 32.6248L139.611 32.3007L139.692 32.6451L140.249 32.2435L141.082 33.428L142.309 33.401L142.905 34.0037L144.023 33.9479L144.214 34.383L145.544 34.592L146.512 35.6134L146.064 35.7981L145.498 37.1823L144.775 37.4137L143.788 36.8951L143.084 37.0009L142.321 37.9277L142.481 38.5515L141.473 39.2745L140.777 40.4379L139.776 41.4356L139.128 41.3567L138.625 40.7718L137.005 41.8556L136.35 41.4205L136.216 40.825L135.514 40.8888L134.67 40.3182L132.992 40.4425L132.768 39.1437L132.336 39.9587L131.699 39.9541L131.176 38.5061L131.42 37.8718L132.379 37.4045L131.759 37.1712L130.967 37.8409L130.825 37.4801L131.677 36.9168L131.923 36.2681L130.152 35.7061L129.924 35.2907L129.435 35.8704L128.42 35.7915L128.571 34.31L127.54 34.7057L127.029 34.4553L127.236 33.963L127.905 33.9071L127.664 33.2827L128.692 33.0329L128.863 31.8886L130.568 30.5057L130.135 30.5017L130.712 29.4941L131.642 30.2099L132.669 28.7047L133.505 29.7413L134.968 29.3476L135.636 30.2855L136.331 30.1672L136.35 30.6687L136.744 30.0357L137.331 30.1238Z" fill="#FF915E" stroke="white" stroke-width="0.75" stroke-linecap="round"/>
<path d="M269.008 113.326L227.777 124.145L225.959 123.56L215.647 129.416L187.645 151.277L187.742 151.008L176.358 141.688L181.703 139.302L186.093 130.041L187.119 129.324L193.931 105.195L195.989 99.8386L196.197 95.1588L196.489 88.6583L200.879 83.8536L204.152 77.7343L202.717 70.215L204.289 66.8431L206.834 69.1436L207.425 67.9211L213.14 67.8159V68.5521L214.004 69.7417C214.004 69.7417 213.815 73.4422 214.004 73.3831C214.199 73.3305 215.848 74.7568 215.848 74.7568L216.471 76.0976L216.984 76.6695L218.77 77.2479L218.9 81.1324L223.069 86.7456L224.394 86.8836L229.102 88.586L230.894 89.3156L232.537 90.0583L233.609 90.5907L235.81 90.8536L261.611 88.0536L269.008 113.326Z" fill="#FF915E" stroke="#FF915E" stroke-width="0.75" stroke-linecap="round"/>
<path d="M127.03 34.4536L127.237 33.9613L127.906 33.9055L127.666 33.2811L128.694 33.0313L128.865 31.887L130.569 30.504L130.136 30.5001L130.713 29.4925L131.643 30.2083L132.68 28.6709L130.452 28.0629L130.039 27.5805L130.221 27.0796L129.639 26.5236L129.002 26.54L128.563 26.981L127.589 27.0533L127.375 28.5L125.756 29.76L124.895 29.7672L124.631 29.2677L122.976 28.7826L122.488 29.6627L121.935 29.8297L121.419 29.4419L119.725 30.93L120.596 31.8692L120.452 32.3405L121.106 32.3451L120.858 33.0149L120.278 33.1798L120.391 34.2256L120.398 33.8174L120.979 33.7878L120.848 33.3961L121.381 33.8279L122.4 33.8417L125.69 32.7743L126.194 34.6942L125.693 35.0649L125.675 35.7886L125.794 36.2303L126.77 35.7393L126.614 35.1057L127.03 34.4536Z" fill="#FF915E" stroke="white" stroke-width="0.75" stroke-linecap="round"/>
<path d="M165.117 89.4273L165.585 95.0865L162.565 98.4718L148.876 107.134L138.602 114.483L129.492 106.655L130.024 104.696L128.127 103.151L127.576 101.955L127.556 100.726L128.212 99.9372L127.4 98.6164L128.206 97.8208L127.589 97.0455L127.978 96.4865L127.861 95.8555V95.8489L128.309 95.8095L127.868 94.3112L127.959 91.5634L128.641 90.1043L129.355 89.5653L130.705 89.8808L131.323 86.9953L133.265 83.2097L132.985 81.6385L133.245 80.6329L132.608 79.9099L132.784 79.1671L132.245 78.8582L132.427 77.6488L133.44 77.0836L133.823 76.0454L133.388 75.7558L133.966 75.1051L133.42 73.4948L135.316 64.8844L134.783 62.9261L136.161 62.183L135.668 62.1107L135.193 60.9342L134.706 60.7501L134.835 59.0083L134.154 58.5154L132.985 59.0478L132.875 57.4243L133.849 55.4064L134.459 54.9529L133.66 51.3316L135.174 51.8374L136.537 53.2312L137.947 53.4017L139.83 52.0809L140.953 53.5858L143.927 51.5285L145.785 52.0083L148.363 52.5538L147.921 55.7614H147.928L151.525 55.5708L151.662 56.7802L152.39 57.8187L152.947 58.7783L152.844 59.4293L154.279 60.0666L155.324 61.2431L157.591 60.7041L158.779 61.7492L159.149 62.768L158.987 64.5164L159.935 64.7858L160.014 65.4365L160.754 66.1004L160.221 67.0403L160.039 68.9201L162.065 69.1042L161.929 70.2084L164.214 70.9515L165.565 70.6553L165.429 73.2187L162.838 73.3108L163.253 73.8895L163.156 74.8951L165.176 79.2131L165.546 83.2755L166.052 85.339L166.059 85.3459L166.793 88.3234L165.117 89.4273Z" fill="#FF915E" stroke="white" stroke-width="0.75" stroke-linecap="round"/>
<path d="M283.184 203.157L277.67 202.841L275.969 203.584L273.534 203.499L271.261 204.07L268.176 203.912L266.228 201.691L265.104 198.898L262.981 196.183H260.63L257.786 198.24L257.059 199.64H255.916L254.701 200.127L252.669 201.362L251.941 204.32L247.883 204.399L247.318 204.813H241.551L237.167 202.513L234.81 201.855L232.537 201.113L230.94 200.028L227.089 189.42L226.095 188.677L226.004 188.013L224.543 187.619L223.777 186.6L224.465 184.588L226.297 183.044L226.024 181.782L217.789 174.414L217.763 168.689L217.646 168.13L215.341 157.134L216.491 151.639L215.647 129.417L225.959 123.56L227.777 124.145L269.008 113.326L270.573 118.755L268.559 119.603L268.261 120.313L268.709 122.028L270.644 124.283L274.644 132.032L276.417 138.586L277.164 143.048L276.677 151.041L279.047 157.922L278.697 161.091L277.943 162.707L277.242 162.951L278.145 163.102L277.989 164.082L277.307 164.831L276.995 166.684L277.079 168.314L278.534 173.303L279.632 174.769L279.696 178.384L279.093 180.559L274.021 183.162L273.32 185.423L272.527 186.442L282.924 199.804L283.184 203.157Z" fill="#FF915E" stroke="white" stroke-width="0.75" stroke-linecap="round"/>
<path d="M202.905 28.2391L202.893 27.1861L204.249 26.9968L203.935 25.0729L205.019 23.1944L204.389 22.5556L204.472 21.1897L203.846 21.0096L202.885 19.3369L202.103 19.0983L201.479 19.5281L199.627 19.7233L199.121 19.0772L199.316 17.8448L198.499 17.4031L198.28 18.1419L196.971 18.746L196.949 20.3826L194.235 21.1043L193.73 19.9862L193.222 20.5896L192.338 20.5292L191.822 21.3455L190.712 21.9114L190.592 23.479L189.639 24.2237L190.009 24.9494L191.445 24.4446L193.234 25.094L195.435 24.1337L195.997 25.957L194.947 26.3678L194.5 27.7448L196.332 27.9367L196.098 27.2853L196.961 26.8653L196.71 27.5824L197.141 28.0859L198.486 27.0592L200.253 26.7096L201.116 27.8066L201.874 27.7744L201.992 28.5743L202.905 28.2391Z" fill="#FF915E" stroke="white" stroke-width="0.75" stroke-linecap="round"/>
<path d="M179.213 15.6748L180.569 15.7524L181.456 15.2831L181.768 14.6363L184.83 15.1023L184.688 13.9889L185.608 13.7779L186.157 14.167L186.049 13.3198L186.93 13.5255L186.429 12.9583L186.679 12.0112L187.356 12.163L187.473 11.7653L188.086 11.7147L188.115 11.202L188.994 10.4376L188.907 9.62325L186.916 9.27884L184.811 9.95913L184.223 10.6683L181.723 11.9743L179.89 11.7936L179.714 12.1939L180.141 12.0526L180.161 12.723L178.681 13.2127L178.253 12.8952L178.506 13.3566L178.059 13.7155L178.55 14.5765L179.125 14.3471L178.777 14.662L179.082 15.2253L178.833 15.4974L179.213 15.6748Z" fill="#FF915E" stroke="white" stroke-width="0.75" stroke-linecap="round"/>
<path d="M239.937 8.68992L240.175 9.14016L239.435 9.14607L239.415 10.0189L238.805 9.92495L238.176 10.6743L238.453 11.1652L238.082 12.1163L238.69 11.9132L239.135 12.2425L239.907 13.958L240.667 13.7069L240.797 14.0638L240.767 13.5571L241.609 13.9409L242.207 15.1569L243.105 15.1444L243.282 16.3012L243.816 15.475L244.999 14.9334L244.788 14.4385L245.092 14.123L246.603 13.5998L248.102 12.1998L248.696 12.1216L249.148 10.7742L248.873 10.0203L248.313 9.75537L250.241 9.4057L251.528 8.53612L251.644 8.19367L250.874 7.97217L251.003 6.50906L248.112 7.4562L247.184 7.02569L246.001 7.20512L245.363 6.63921L242.288 8.39809L239.937 8.68992Z" fill="#FF915E" stroke="white" stroke-width="0.75" stroke-linecap="round"/>
<path d="M88.2091 170.319L86.0528 177.523L84.8975 178.219L79.9037 177.851L77.4028 178.89L75.8966 180.191L71.2336 186.58L69.2601 190.997L60.0516 190.846L55.3756 195.414L46.9595 198.194L4.12561 165.12L6.19751 141.477L9.33961 140.347L13.737 137.028L16.9905 135.444L19.7439 133.472L21.7564 132.907L22.4058 131.75L25.6271 131.842L29.2897 129.705L34.6086 131.112L35.8619 130.304L38.2835 130.376L39.4846 129.712L40.3028 130.021L43.5888 129.693L45.0499 130.12L48.9077 129.489L49.986 130.034L49.5444 131.145L50.4409 130.843L52.1608 132.006L53.194 130.619L56.4273 133.366L61.8888 133.597L65.6624 135.68L69.4153 149.601L73.8191 157.936L73.8701 162.958L77.6636 167.624L79.6118 169.215L88.2091 170.319Z" fill="#FF915E" stroke="white" stroke-width="0.75" stroke-linecap="round"/>
<path d="M153.227 27.7455L153.728 28.1871L153 29.0646L152.541 28.9713L152.326 28.3843L151.681 28.7406L151.815 29.8257L151.392 30.5323L152.265 31.63L152.648 30.1196L153.472 30.7308L153.821 30.5317L154.7 31.0338L154.739 31.9639L156.008 31.8495L156.686 32.9794L157.214 33.0813L157.326 32.3931L157.948 33.032L160.414 32.748L161.994 31.8692L161.631 32.3103L162.638 32.3543L162.619 32.98L165.021 32.7723L165.482 31.4788L163.658 30.9937L163.432 30.0998L163.76 29.6923L165.205 29.8428L165.791 27.2748L164.777 27.1887L164.231 26.4598L163.434 26.4237L163.148 25.8078L161.403 26.2738L161.407 25.6139L159.696 27.5384L159.194 27.5509L158.934 26.7957L157.549 26.6307L156.308 25.8617L155.636 24.6286L154.844 25.3937L154.821 25.9623L153.352 26.3698L153.601 26.5985L153.265 26.8174L153.227 27.7455Z" fill="#FF915E" stroke="white" stroke-width="0.75" stroke-linecap="round"/>
<path d="M261.611 88.0536L235.81 90.8536L232.238 86.6733L227.186 79.062L221.926 63.9642L221.14 58.9295L220.932 59.4553L220.595 58.772L220.101 58.844L218.328 60.2509L217.971 59.5605L218.523 57.0891L217.984 56.0506L217.497 54.9595L216.465 53.967L216.277 51.496L216.322 51.5022L219.77 50.6477L223.491 51.9889L224.433 52.9088L225.504 52.5279V52.521L226.628 51.0815L226.66 52.5013L230.031 54.5651L231.037 54.7952L231.095 51.7848L233.966 51.5219L236.733 52.5013L242.096 52.7707L242.161 53.2703L241.122 54.0985L240.031 53.6581L239.447 55.0975L238.343 55.8863L238.817 56.6618L238.447 58.5285L238.856 59.7051L238.557 60.3623L239.473 61.0591L239.648 62.86L241.967 66.5276L243.259 70.5308L244.291 70.537L247.324 71.8056L247.357 72.6469L250.448 76.3014L251.221 81.6648L261.611 88.0536Z" fill="#FF915E" stroke="white" stroke-width="0.75" stroke-linecap="round"/>
<path d="M234.089 43.372L234.148 42.3266L233.823 42.4252L234.109 41.5378L234.538 40.9003L235.362 40.966L235.927 42.5303L235.44 43.8514L235.856 44.4762L235.836 45.5932L234.466 48.1829L233.966 51.5219L231.095 51.7848L231.037 54.7952L230.031 54.5651L226.66 52.5013L226.628 51.0815L226.29 49.813L226.972 48.4721L226.868 46.1782L227.336 44.6073L226.803 44.7388L227.076 44.0815L226.394 43.3914L226.654 43.0759L225.914 43.1219L225.433 44.2458L224.731 44.6405L224.316 43.2336L224.842 42.7078L224.446 42.3923L224.77 42.0111L223.9 40.5322L223.374 40.4336L223.641 39.8749L223.355 38.9876L224.199 38.0477L224.05 36.319L225.121 35.3988L224.439 35.2608L224.55 34.3146L224.14 33.4336L225.108 32.5268L226.68 32.1325L227.076 31.1396L226.595 30.1537L226.731 29.2795L227.238 30.3249L229.855 29.924L230.258 30.272L229.992 30.9425L231.056 31.258L231.68 29.9368L232.862 30.1146L232.94 29.7528L234.089 30.3312L234.044 31.7509L234.726 31.5537L234.992 30.6335L235.843 31.2386L235.726 31.6195L236.115 31.2251L236.375 31.4292L236.59 32.2176L237.038 32.257L237.466 32.9472L235.434 33.6899L235.512 35.2937L236.005 35.6752L235.492 36.4508L236.174 37.4758L235.245 39.0796L234.401 39.612L233.498 41.9848L234.089 43.372Z" fill="#FF915E" stroke="white" stroke-width="0.75" stroke-linecap="round"/>
<path d="M247.177 23.4574L245.764 22.7468L244.141 23.4771L243.326 23.3745L241.961 24.9205L240.908 24.9408L239.689 24.02L239.431 24.9165L238.9 25.2353L239.13 26.2455L237.302 26.3862L237.322 25.4147L235.586 24.7969L234.92 23.9221L234.498 22.5286L234.02 22.499L233.745 21.0116L233.258 20.4076L233.58 19.5229L235.432 19.8772L237.068 19.2633L237.844 19.442L239.247 18.0742L240.687 17.9612L240.93 17.674L240.23 16.7656L240.356 15.9L241.02 16.1708L242.21 15.1559L243.108 15.1434L243.285 16.3002L243.819 15.474L245.003 14.9324L247.077 15.4885L247.561 15.1395L248.326 15.5575L247.94 16.6861L248.187 17.509L247.505 18.2103L247.761 18.7433L247.198 19.7766L247.738 20.9768L247.175 21.9962L247.177 23.4574Z" fill="#FF915E" stroke="white" stroke-width="0.75" stroke-linecap="round"/>
<path d="M157.378 15.8447L156.665 17.4663L157.587 19.1804L158.541 18.4587L158.728 17.7285L161.256 18.2583L163.177 17.6214L164.949 18.1571L167.986 18.1636L168.66 17.2014L169.678 17.3999L169.969 16.9792L169.681 16.4521L170.369 16.36L171.329 15.2775L172.699 14.8838L172.479 14.2114L172.392 13.2603L169.023 15.125L167.252 15.0994L166.939 14.4263L166.176 14.2423L161.799 15.5779L160.298 15.3978L157.378 15.8447Z" fill="#FF915E" stroke="white" stroke-width="0.75" stroke-linecap="round"/>
<path d="M218.221 26.0336L215.895 25.7588L215.577 26.0106L216.356 25.1607L215.601 24.3634L216.049 23.9671L215.864 22.5966L214.751 22.3344L214.719 21.1066L215.354 20.7641L213.933 19.2084L213.996 18.4387L213.091 18.1587L213.165 17.2733L212.357 16.6469L212.438 15.3008L212.076 14.8296L212.799 14.6074L213.687 15.0819L214.663 14.7888L215.47 13.6905L218.623 14.2242L219.832 13.4144L220.113 13.8338L221.894 14.1499L222.522 14.0356L222.509 15.0865L220.367 15.5894L220.552 16.9177L219.954 18.1521L220.811 17.8859L221.542 18.4637L221.37 19.4417L221.882 19.7677L222.543 19.5738L223.152 20.1016L223.082 20.9916L221.545 21.5588L221.44 23.3933L220.648 24.4009L220.14 24.3246L220.279 24.8314L219.814 24.4962L218.743 24.6447L218.221 26.0336Z" fill="#FF915E" stroke="white" stroke-width="0.75" stroke-linecap="round"/>
<path d="M169.929 19.5479L167.986 18.1636L164.949 18.157L163.177 17.6214L161.255 18.2583L158.727 17.7285L158.54 18.4587L157.586 19.1804L156.664 17.4662L155.217 18.5442L155.132 19.3145L156.104 20.3806L155.327 21.149L156.515 21.5013L155.651 22.083L155.654 22.7528L156.095 23.2148L156.615 23.0972L156.448 23.8195L156.891 24.8758L157.714 25.4732L157.549 26.6294L158.935 26.7944L159.194 27.5496L159.697 27.5371L161.407 25.6126L161.404 26.2725L163.148 25.8065L163.434 26.4224L164.232 26.4585L164.777 27.1874L165.792 27.2735L166.473 26.5479L166.255 25.9721L167.544 26.0208L167.749 24.1961L168.309 24.3499L169.505 23.6197L169.546 22.4083L168.673 22.2079L168.618 21.3081L168.157 21.1773L168.563 19.9218L169.437 19.9501L169.929 19.5479Z" fill="#FF915E" stroke="white" stroke-width="0.75" stroke-linecap="round"/>
<path d="M135.316 64.8844L133.42 73.4948L133.966 75.1052L133.388 75.7559L133.823 76.0454L133.44 77.0836L132.427 77.6488L132.245 78.8582L132.784 79.1671L132.608 79.9099L133.245 80.6329L132.985 81.6385L133.265 83.2097L131.323 86.9954L130.264 88.5732L128.699 88.2314L127.524 89.1056L123.114 87.8564L119.328 89.894L119.133 88.8689L118.237 88.8423L118.588 86.9559L117.659 86.8774L117.555 85.3065L119.419 83.6041L115.672 80.5474L114.127 79.7718L111.951 76.0385L112.77 75.7624L113.016 74.185L111.587 72.8112L110.328 70.5633L110.451 68.8741L111.568 66.3699L111.503 65.1079L110.736 63.7802L109.568 63.445L109.704 62.86L110.536 62.2487L110.179 60.5924L110.952 56.8462L113.296 55.1173L116.536 55.137L117.334 54.2102L118.322 53.8947L119.03 54.9661L120.413 53.9341L120.795 54.6046L121.017 54.3285L122.939 54.9201L125.575 53.2703L126.771 53.9539L128.803 60.3755L129.011 59.6328L129.563 59.6591L130.921 57.7595L131.986 57.2932L132.875 57.4243L132.985 59.0478L134.154 58.5154L134.835 59.0084L134.706 60.7501L135.193 60.9342L135.668 62.1107L136.161 62.183L134.783 62.9261L135.316 64.8844Z" fill="#FF915E" stroke="white" stroke-width="0.75" stroke-linecap="round"/>
<path d="M120.285 40.1812L119.84 40.2272L119.67 39.6291L117.404 38.4802L117.189 38.6971L116.948 38.1897L116.246 38.4887L114.727 37.9675L114.131 38.8456L113.428 39.0191L112.745 38.5801L112.876 37.953L112.326 37.5435L114.06 36.3828L115.116 36.4755L116.492 35.6585L117.807 31.9731L118.387 31.9961L119.725 30.93L120.596 31.8692L120.452 32.3405L121.106 32.3451L120.858 33.0149L120.278 33.1799L120.391 34.2256L120.398 33.8174L120.979 33.7878L120.848 33.3961L121.381 33.8279L122.4 33.8417L125.69 32.7743L126.194 34.6942L125.693 35.0649L125.675 35.7886L123.832 36.1153L123.788 36.5938L123.16 36.8935L122.632 36.5333L122.124 37.4502L121.687 37.3326L121.873 38.6116L120.977 38.9146L120.816 39.8684L120.285 40.1812Z" fill="#FF915E" stroke="white" stroke-width="0.75" stroke-linecap="round"/>
<path d="M204.152 77.7343L200.879 83.8535L196.489 88.6583L196.197 95.1588H194.145L192.736 94.278L191.099 92.9634H189.327L187.652 91.8132H183.158L182.281 91.0508L179.372 90.8536L178.398 90.4986H176.014L175.203 89.9005L171.956 88.9672L168.981 87.6526L166.059 85.3459L166.052 85.339L165.546 83.2755L165.176 79.2131L172.208 78.5887L175.696 77.5305L181.248 78.8714L181.033 76.9656L178.657 75.4995L183.755 75.2629L184.366 74.7765L184.652 74.9868L184.924 74.4939L185.118 74.8294L185.71 74.5727L187.451 75.3023L187.95 75.0263L196.444 75.6178L204.152 77.7343Z" fill="#FF915E" stroke="white" stroke-width="0.75" stroke-linecap="round"/>
<path d="M145.544 34.5917L144.215 34.3827L144.023 33.9476L142.906 34.0034L142.31 33.4007L141.082 33.4276L140.25 32.2432L139.693 32.6448L139.611 32.3004L138.497 32.6245L137.707 30.251L137.331 30.1235L138.464 28.7603L139.027 28.406L139.596 28.6512L140.461 27.7067L140.314 27.1086L140.697 26.4565L140.26 26.4802L140.056 25.9761L140.606 25.3069L141.402 25.6829L141.761 25.2853L143.142 25.2241L142.908 24.6516L143.32 24.1922L142.483 23.3049L143.768 21.6807L145.103 21.8917L146.514 21.3652L146.817 22.6101L147.166 22.6239L146.629 23.7328L146.959 23.6296L147.296 24.9422L148.449 24.5064L148.224 24.6668L148.609 24.6937L148.96 25.4686L149.975 26.1161L151.818 25.5817L153.229 27.7422L153.73 28.1839L153.001 29.0613L152.543 28.968L152.327 28.381L151.682 28.7373L151.816 29.8225L151.393 30.529L150.452 30.905L150.084 31.5531L148.747 31.417L148.641 32.0171L148.114 31.9448L148.041 32.5153L147.253 32.5791L146.131 34.4708L145.544 34.5917Z" fill="#FF915E" stroke="white" stroke-width="0.75" stroke-linecap="round"/>
<path d="M218.66 67.7107L213.14 67.8159L207.425 67.9211L207.854 66.7906L207.412 65.7455L207.185 62.7023L206.477 61.3286L207.035 58.6994L208.315 55.6168L205.931 53.474L206.393 52.2581L205.613 51.3642L206.841 50.4966L206.373 50.0825L207.087 49.6684L207.146 49.7078L208.574 50.6675L216.277 51.496L216.465 53.967L217.497 54.9595L217.984 56.0506L218.523 57.0891L217.971 59.5605L217.543 59.9614L217.51 60.8816L218.25 62.5905L218.276 64.2666L217.653 64.9702L218.419 65.9361L218.66 67.7107Z" fill="#FF915E" stroke="white" stroke-width="0.75" stroke-linecap="round"/>
<path d="M196.197 95.1588L195.99 99.8389L193.931 105.195L187.118 129.325L186.092 130.041L181.703 139.302L176.358 141.688L169.124 142.326L162.455 144.83L163.182 141.616L160.409 126.012L162.124 117.283L162.565 98.4718L165.585 95.0865L165.117 89.4273L166.793 88.3234L166.059 85.3459L168.981 87.6526L171.956 88.9672L175.203 89.9005L176.014 90.4986H178.398L179.372 90.8536L182.281 91.0508L183.158 91.8132H187.651L189.327 92.9634H191.099L192.736 94.278L194.145 95.1588H196.197Z" fill="#FF915E" stroke="white" stroke-width="0.75" stroke-linecap="round"/>
<path d="M207.412 65.7455L207.854 66.7905L207.425 67.9211L206.834 69.1436L204.288 66.8431L204.217 65.5943L204.555 65.0159L201.957 64.3586L201.483 63.5567L200.21 63.7671L199.957 63.1426L197.84 62.7351L197.139 61.7623L192.872 59.9022L192.58 59.4487L192.84 59.1069L193.71 59.0215L194.599 58.0553H195.379L195.008 57.5755L193.482 57.3191L193.229 56.3398L192.002 56.1623L191.398 55.413L191.684 54.9595L192.976 54.6177L193.482 53.9539L192.301 53.3426L192.502 52.8693L191.71 52.0346L191.443 50.0036L191.099 49.8064L192.521 48.6036L193.093 47.4008L196.216 47.3745L197.405 46.6252L197.833 46.9144L198.496 46.5595L197.652 45.843L198.301 45.7313L198.911 44.7454L201.762 43.8777C201.762 43.8777 201.762 43.8777 201.769 43.8777C202.931 43.9369 204.191 43.9829 204.191 43.9829L204.678 45.2778L205.288 45.8102L205.386 46.4937L206.198 47.105L206.769 47.7426V48.7285L207.146 49.7078L207.087 49.6684L206.373 50.0825L206.84 50.4966L205.613 51.3642L206.392 52.2581L205.931 53.474L208.315 55.6168L207.035 58.6994L206.477 61.3285L207.185 62.7023L207.412 65.7455Z" fill="#FF915E" stroke="white" stroke-width="0.75" stroke-linecap="round"/>
<path d="M170.15 292.816L168.695 293.296L167.597 291.272L166 289.76L164.987 289.523L163.766 290.812L162.936 290.056L162.416 290.312L161.611 290.003L160.948 290.371L160.306 289.366L159.156 289.392L157.077 287.472L156.493 284.627L152.369 283.154L151.343 281.827L149.317 282.004L149.019 281.228L149.552 277.443L149.182 275.497L131.167 263.271L130.914 261.97L71.5463 217.551L57.9804 206.87H57.9732L57.9476 206.85L66.5001 203.742L70.8764 203.472L153.538 226.852L153.129 263.975L155.831 263.535L158.701 263.844L158.779 264.212L159.689 268.609L163.649 272.677L165.267 276.003L166.358 279.848L166.338 283.877L167.799 286.02L169.831 290.917L170.15 292.816Z" fill="#FF915E" stroke="white" stroke-width="0.75" stroke-linecap="round"/>
<path d="M138.48 114.628L133.004 120.852L130.427 125.394L123.81 130.106L122.815 133.557L123.478 138.027L123.082 139.814L120.179 142.299L119.303 143.055L112.035 143.357L103.438 145.737L99.0021 151.849L94.7554 155.09L93.6313 157.561L89.6381 162.51L87.4561 169.498L88.2091 170.319L79.6118 169.215L77.6636 167.624L73.8701 162.958L73.8191 157.936L69.4153 149.601L65.6624 135.68L61.8888 133.597L56.4273 133.366L53.194 130.619L55.9273 127.076L55.9474 126.176L56.6033 125.19L61.8628 121.404L66.7212 119.274L71.0388 115.35L73.5847 114.529L77.9555 114.016L79.5468 113.418L79.728 114.851L80.2537 115.423L80.6638 117.48L80.9031 118.052H82.6503V117.355H84.1965L84.8849 116.823H87.1188L87.6828 116.323L88.5799 115.626L89.554 116.08H91.5412L94.7882 112.997L101.081 113.083L101.73 112.34H108.75L109.646 111.722L111.548 111.479L112.445 112.551L115.244 112.261L115.692 111.768L117.88 111.683L118.854 110.986L122.425 110.861L123.037 110.329H124.698L126.609 112.136H127.945L128.919 113.537H134.439L135.538 114.148L138.48 114.628Z" fill="#FF915E" stroke="white" stroke-width="0.75" stroke-linecap="round"/>
<path d="M163.182 141.616L162.455 144.83L161.948 151.79L161.566 153.019L160.811 151.277L158.87 150.206L154.533 150.64L152.909 149.983L148.363 150.094L145.55 151.277L143.818 151.954L142.733 152.395L140.895 152.835H138.602L136.459 152.178L134.835 151.277H132.667L130.505 150.423L127.907 149.654L120.179 142.299L123.082 139.814L123.478 138.027L122.815 133.557L123.81 130.106L130.427 125.394L133.004 120.852L138.48 114.628L138.602 114.483L148.876 107.134L162.565 98.4718L162.124 117.283L160.409 126.012L163.182 141.616Z" fill="#FF915E" stroke="white" stroke-width="0.75" stroke-linecap="round"/>
<path d="M235.81 90.8536L233.609 90.5907L232.537 90.0583L230.894 89.3156L229.102 88.586L224.394 86.8836L223.069 86.7456L218.9 81.1324L218.77 77.2479L216.984 76.6695L216.471 76.0976L215.848 74.7568C215.848 74.7568 214.198 73.3305 214.003 73.3831C213.815 73.4422 214.003 69.7417 214.003 69.7417L213.14 68.5521V67.8159L218.66 67.7107L218.419 65.9361L217.653 64.9699L218.276 64.2666L218.25 62.5905L217.51 60.8816L217.543 59.9614L217.971 59.5605L218.328 60.2506L220.101 58.844L220.595 58.7717L220.932 59.4553L221.14 58.9295L221.926 63.9642L227.186 79.062L232.238 86.6733L235.81 90.8536Z" fill="#FF915E" stroke="white" stroke-width="0.75" stroke-linecap="round"/>
<path d="M314.874 228.067L289.366 247.201L288.899 233.688L284.041 230.907L282.606 230.94L281.528 230.269L272.501 230.809L264.13 237.132L252.974 239.866L248.922 236.98L250.201 235.508L246.577 227.384L245.902 220.194L246.058 217.709L242.427 212.431L239.518 212.339L237.681 210.906L235.284 206.805L234.226 204.064L230.94 200.028L232.537 201.113L234.81 201.855L237.167 202.513L241.551 204.813H247.318L247.883 204.399L251.941 204.32L252.669 201.362L254.701 200.127L255.916 199.64H257.059L257.786 198.24L260.63 196.183H262.981L265.104 198.898L266.228 201.691L268.176 203.912L271.261 204.07L273.534 203.499L275.969 203.584L277.67 202.841L283.184 203.157L283.43 206.417L286.522 211.478L288.775 213.233L291.639 213.075L292.639 212.332L294.022 212.24L295.016 213.22L295.854 212.155L296.964 212.312L297.802 212.655L299.451 214.317L300.757 214.751L305.354 217.624L308.023 216.322L314.874 228.067Z" fill="#FF915E" stroke="white" stroke-width="0.75" stroke-linecap="round"/>
<path d="M217.646 168.13L213.14 168.006L212.328 169.32L210.951 170.924V172.317L211.679 174.164L209.652 177.043L208.633 177.865V179.468L205.431 182.755L204.087 183.084L203.314 184.523C203.314 184.523 202.71 184.641 202.464 184.523C202.223 184.398 201.451 183.741 201.451 183.741L197.229 183.984L192.034 189.656L190.372 189.9L188.586 188.177L187.852 188.749L188.95 190.517L189.599 191.175L190.086 193.929L189.073 194.79L188.95 196.269L190.937 199.68L187.203 203.374L186.105 202.881L185.417 203.374H183.391L182.982 202.513V199.64L181.28 199.68L179.209 202.145L172.552 202.388L170.728 200.455L168.091 200.048L166.708 198.858L164.519 199.266L163.26 198.24L162.201 199.351L161.714 201.731L161.428 203.131L160.337 208.468L159.688 210.768L153.467 215.816L153.369 201.395L147.804 193.423L146.044 189.453L150.902 184.405L151.674 182.794L153.382 182.262L153.96 182.794L155.09 182.663L155.181 183.202L156.707 182.098L157.012 176.261L158.675 172.028L157.473 170.201L157.441 166.119L158.649 164.029L159.175 157.404L161.233 154.097L161.539 153.098L161.565 153.02L161.948 151.79L162.454 144.83L169.124 142.326L176.358 141.688L187.742 151.008L187.644 151.278L215.646 129.417L216.491 151.639L215.341 157.134L217.646 168.13Z" fill="#FF915E" stroke="white" stroke-width="0.75" stroke-linecap="round"/>
<path d="M251.987 274.748L247.59 277.988L222.874 302.787L183.579 311.838L180.261 309.268L179.93 308.506L181.287 306.626L181.527 305.502L182.482 304.477L181.885 303.063L182.118 302.419L181.488 301.394L181.839 300.25L181.488 299.652L181.755 297.214L177.508 295.137L173.41 294.263L171.41 294.276L169.656 293.336L168.695 293.296L170.15 292.816L169.832 290.917L167.799 286.02L166.338 283.877L166.357 279.848L165.266 276.003L163.649 272.677L159.688 268.609L158.779 264.212L165.266 264.113L165.818 263.475L176.04 263.554L176.936 262.082L178.235 262.49L179.209 264.869L180.345 267.091L181.235 270.048L183.183 270.213L184.891 272.599L187.976 272.756L189.112 273.828L191.548 274.57L192.846 276.214V277.686L193.658 278.672V280.486L193.249 281.472L192.846 284.673L193.743 285.659H196.58L199.912 282.287L202.75 281.715L203.483 278.672L203.964 277.357L203.483 275.885L204.048 273.499L205.432 272.677L206.808 273.17L209.484 273.335L212.9 275.556L219.147 275.471L220.848 277.357H228.966V274.485L229.94 272.513L230.914 270.127L231.648 267.669L232.46 266.026H236.434L242.363 270.377L243.824 270.627L244.551 269.969H246.259C246.259 269.969 249.669 272.756 250.071 273.256C250.253 273.473 251.097 274.104 251.987 274.748Z" fill="#FF915E" stroke="white" stroke-width="0.75" stroke-linecap="round"/>
</svg>
