<svg width="100" height="100" viewBox="0 0 100 100" fill="none" xmlns="http://www.w3.org/2000/svg">
<g clip-path="url(#clip0_449_7465)">
<mask id="mask0_449_7465" style="mask-type:luminance" maskUnits="userSpaceOnUse" x="0" y="0" width="100" height="100">
<path d="M100 0H0V100H100V0Z" fill="white"/>
</mask>
<g mask="url(#mask0_449_7465)">
<path d="M31.6913 37.4702L31.6959 30.4396C31.6959 25.404 33.7541 20.828 37.0729 17.5092C40.3887 14.1904 44.9647 12.1322 50.0003 12.1322C60.0683 12.1322 68.3047 20.3716 68.3047 30.4396L68.3093 37.5202M34.8955 46.8372C36.6529 46.8372 38.0907 45.3992 38.0907 43.6418V37.4606C38.0907 35.7032 36.6529 34.2652 34.8955 34.2652C33.1381 34.2652 31.7003 35.7032 31.7003 37.4606V43.6418C31.7003 45.3992 33.1381 46.8372 34.8955 46.8372ZM65.1455 46.8464C66.9029 46.8464 68.3407 45.4086 68.3407 43.6512V37.4698C68.3407 35.7124 66.9029 34.2746 65.1455 34.2746C63.3881 34.2746 61.9503 35.7124 61.9503 37.4698V43.6512C61.9503 45.4086 63.3881 46.8464 65.1455 46.8464Z" stroke="#1D1E1C" stroke-width="2.40804" stroke-linecap="round" stroke-linejoin="round"/>
<path d="M60.4991 75.694C62.8601 75.694 64.7741 73.78 64.7741 71.419V67.144H56.2241V71.419C56.2241 73.78 58.1381 75.694 60.4991 75.694Z" fill="white" stroke="#FF5100" stroke-width="2.40804" stroke-linecap="round" stroke-linejoin="round"/>
<path d="M56.7742 51.5703V55.3583C56.7742 59.0843 53.7242 62.1323 49.9982 62.1323C46.2722 62.1323 43.2242 59.0843 43.2242 55.3583V51.5723" stroke="#1D1E1C" stroke-width="2.40804" stroke-linecap="round" stroke-linejoin="round"/>
<path d="M56.776 55.3375H58.3C67.468 55.3375 74.9 62.7695 74.9 71.9375V77.4895C74.9 79.0135 73.758 80.2955 72.244 80.4695L66.436 81.1415C64.848 81.3255 63.296 81.7315 61.822 82.3475C58.04 83.9295 54.022 84.7235 50 84.7315C49.98 84.7315 49.96 84.7315 49.94 84.7315C45.92 84.7315 41.9 83.9455 38.116 82.3715L38.076 82.3555C36.538 81.7155 34.918 81.2955 33.262 81.1035L27.756 80.4695C26.242 80.2955 25.1 79.0135 25.1 77.4895V71.9375C25.1 62.7695 32.532 55.3375 41.7 55.3375H43.226" stroke="#1D1E1C" stroke-width="2.40804" stroke-linecap="round" stroke-linejoin="round"/>
<path d="M62.1799 34.6761L61.9151 42.0951C61.6919 48.5141 56.4233 53.6025 50.0003 53.6025C43.5773 53.6025 38.3087 48.5141 38.0855 42.0951L37.8715 34.0701" stroke="#1D1E1C" stroke-width="2.40804" stroke-linecap="round" stroke-linejoin="round"/>
<path d="M37.81 34.1476C45.626 33.8216 51.866 28.9596 54.776 22.1276C61.3334 26.7996 60.9812 30.8918 62.1672 34.8338C65.0432 30.9046 64.4794 23.0846 62.4666 19.9996C60.7914 17.432 57.7334 16.5996 57.7334 16.5996C53.375 15.5428 48.917 17.1082 46.7064 18.1C45.788 18.512 44.7216 18.4106 43.9024 17.826L40.7266 15.5598C39.54 14.6742 37.343 14.7826 36.5 15.9996C35.4212 17.5568 34.8694 20.0556 34.45 22.8496C33.463 29.4248 37.8314 34.1252 37.8314 34.1252" fill="white"/>
<path d="M37.81 34.1476C45.626 33.8216 51.866 28.9596 54.776 22.1276C61.3334 26.7996 60.9812 30.8918 62.1672 34.8338C65.0432 30.9046 64.4794 23.0846 62.4666 19.9996C60.7914 17.432 57.7334 16.5996 57.7334 16.5996C53.375 15.5428 48.917 17.1082 46.7064 18.1C45.788 18.512 44.7216 18.4106 43.9024 17.826L40.7266 15.5598C39.54 14.6742 37.343 14.7826 36.5 15.9996C35.4212 17.5568 34.8694 20.0556 34.45 22.8496C33.463 29.4248 37.8314 34.1252 37.8314 34.1252" stroke="#FF5100" stroke-width="2.40804" stroke-linecap="round" stroke-linejoin="round"/>
<path d="M51.3495 47.2633H52.8523C53.4727 47.2633 53.9801 46.7557 53.9801 46.1352C53.9801 45.5148 53.4727 45.0072 52.8523 45.0072H51.3495C50.7291 45.0072 50.2217 45.5148 50.2217 46.1352C50.2217 46.7557 50.7291 47.2633 51.3495 47.2633Z" stroke="#FF5100" stroke-width="2.40804" stroke-linecap="round" stroke-linejoin="round"/>
<path d="M53.8624 46.1337L56.9702 45.6811C58.2502 45.4947 59.4738 45.0351 60.562 44.3357C63.294 42.5796 68.3364 39.4575 68.3364 39.4575" stroke="#FF5100" stroke-width="2.40804" stroke-linecap="round" stroke-linejoin="round"/>
</g>
</g>
<defs>
<clipPath id="clip0_449_7465">
<rect width="100" height="100" fill="white"/>
</clipPath>
</defs>
</svg>
